<?xml version="1.0" standalone="no"?>
<!DOCTYPE svg PUBLIC "-//W3C//DTD SVG 20010904//EN"
 "http://www.w3.org/TR/2001/REC-SVG-20010904/DTD/svg10.dtd">
<svg version="1.0" xmlns="http://www.w3.org/2000/svg"
 width="60.000000pt" height="60.000000pt" viewBox="0 0 16 16"
 preserveAspectRatio="xMidYMid meet">
<g transform="translate(0.000000,60.000000) scale(0.100000,-0.100000)"
fill="#000000" stroke="none">
<path d="M357 344 c-4 -4 -7 -16 -7 -26 0 -10 -4 -18 -10 -18 -5 0 -10 -9 -10
-20 0 -15 -7 -20 -29 -20 -21 0 -32 6 -36 20 -8 25 -25 26 -25 2 0 -14 -8 -18
-35 -19 -28 -1 -35 3 -35 18 0 25 -20 25 -27 0 -4 -16 -17 -21 -69 -26 -35 -4
-64 -11 -64 -16 0 -5 13 -15 30 -24 24 -12 76 -15 290 -15 l260 0 0 25 c0 23
-4 25 -42 25 -42 1 -155 24 -165 34 -3 3 -8 19 -12 36 -3 17 -9 28 -14 24z"/>
</g>
</svg>
